<svg width="20.000000" height="20.000000" viewBox="0 0 20 20" fill="none" xmlns="http://www.w3.org/2000/svg" xmlns:xlink="http://www.w3.org/1999/xlink">
	<desc>
			Created with Pixso.
	</desc>
	<defs/>
	<path d="M13.53 12.38L12.92 12.38L12.71 12.17C13.63 11.11 14.1 9.65 13.84 8.1C13.48 5.98 11.71 4.29 9.58 4.03C6.35 3.64 3.64 6.35 4.03 9.57C4.29 11.71 5.99 13.48 8.11 13.83C9.65 14.09 11.11 13.62 12.18 12.71L12.38 12.92L12.38 13.52L15.62 16.76C15.94 17.07 16.45 17.07 16.76 16.76C17.07 16.45 17.07 15.94 16.76 15.63L13.53 12.38ZM8.95 12.38C7.05 12.38 5.52 10.85 5.52 8.95C5.52 7.05 7.05 5.52 8.95 5.52C10.85 5.52 12.38 7.05 12.38 8.95C12.38 10.85 10.85 12.38 8.95 12.38Z" fill="#121212" fill-opacity="1.000000" fill-rule="nonzero"/>
</svg>
